<svg xmlns="http://www.w3.org/2000/svg" xmlns:svg="http://www.w3.org/2000/svg" id="svg8" width="603.251" height="475.838" version="1.1" viewBox="0 0 159.61 125.899"><metadata id="metadata5"/><g id="layer1" transform="translate(-10.301338,-105.4465)"><path style="fill:#d9e1eb;fill-opacity:1;stroke:none;stroke-width:.342496px;stroke-linecap:butt;stroke-linejoin:miter;stroke-opacity:1" id="path967" d="m 72.337517,128.66877 c -1.565109,0.11501 -1.173178,-2.07518 -0.913874,-5.19079 0.227511,-2.73361 1.409798,-5.90619 2.813874,-7.91599 1.865807,-2.67075 3.596375,-5.20731 8.419826,-5.41602 5.368424,-0.23232 6.733829,0.80025 9.024511,3.45324 1.809487,2.09568 2.454327,4.54436 2.823766,7.64364 0.220849,1.85267 0.799478,4.24176 -0.732453,4.88809 -1.531921,0.64635 -0.603487,-1.71978 -2.59962,-4.29353 -1.502932,-1.93782 -2.734227,-2.48091 -3.374241,-1.13737 -0.525596,1.10336 -1.819378,1.2838 -4.08279,1.28148 -2.471287,-0.003 -4.643721,-0.27277 -4.990638,-1.69234 -0.741544,-1.29783 -2.066528,0.86222 -3.398493,2.89278 -1.461263,2.22766 -1.58647,5.23265 -2.989868,5.48681 z"/><ellipse style="fill:#d9e1eb;fill-opacity:1;stroke:none;stroke-width:.502507;stroke-linecap:round;stroke-linejoin:round;stroke-miterlimit:4;stroke-dasharray:none;stroke-opacity:1" id="ellipse965" cx="83.831" cy="110.645" rx="5.245" ry="5.198"/><ellipse style="fill:#dbdee6;fill-opacity:1;stroke:none;stroke-width:.240146;stroke-linejoin:round;stroke-opacity:1" id="path2003-1" cx="88.094" cy="218.385" rx="34.551" ry="7.654"/><path id="path934" d="m 95.073996,213.62489 c 0,0 -0.30945,0.58424 -0.72004,1.42253 -0.42149,0.86054 -0.943987,1.71173 -0.754997,2.5757 0.35475,1.62166 1.175483,2.39824 3.260623,2.08451 2.05228,-0.30881 2.614985,-0.97163 2.944155,-2.24866 0.439743,-1.70605 0.08224,-3.28966 -0.146061,-4.0097" style="fill:#6b2b50;fill-opacity:1;stroke:none;stroke-width:.367492px;stroke-linecap:butt;stroke-linejoin:miter;stroke-opacity:1"/><path id="path924" d="m 89.345846,202.13081 c 0,0 1.249165,0.43527 2.85626,4.75589 0.501624,1.34861 1.27929,3.45901 1.74576,4.60405 0.56149,1.37827 1.29395,2.78091 1.29395,2.78091 1.40497,1.04492 2.53673,0.90954 3.9417,0.37183 0,0 0.81111,-2.14097 1.473524,-3.7549 0.67657,-1.64849 0.92058,-3.00139 1.59577,-6.03394 0.69628,-3.12723 0.87457,-4.27782 0.87457,-4.27782 z" style="fill:#ffac91;fill-opacity:1;stroke:none;stroke-width:.367492px;stroke-linecap:butt;stroke-linejoin:miter;stroke-opacity:1"/><path style="fill:#6b2b50;fill-opacity:1;stroke:none;stroke-width:.367492px;stroke-linecap:butt;stroke-linejoin:miter;stroke-opacity:1" id="path934-0" d="m 74.459517,213.73765 c 0,0 -0.263426,0.49175 -0.965911,1.10643 -0.702479,0.61466 -1.422524,1.01858 -1.527895,1.89669 -0.207239,1.72703 1.176655,2.98554 3.284096,2.91529 2.107441,-0.0703 2.722113,-0.91322 3.424599,-2.52893 0.702474,-1.6157 0.597095,-2.84505 0.368793,-3.56509"/><path style="fill:#fb957e;fill-opacity:1;stroke:none;stroke-width:1.37127px;stroke-linecap:butt;stroke-linejoin:miter;stroke-opacity:1" id="path1084" d="m 389.77148,758.08594 -52.08593,5.87304 c 0,0 3.89109,1.39345 9.14843,13.8418 3.2642,1.12672 7.03372,2.03779 13.0293,2.07422 11.92072,0.0722 15.05527,-6.07892 26.98828,-7.39844 0.056,-0.25474 0.0984,-0.45232 0.15235,-0.69922 2.1202,-9.70758 2.76757,-13.6914 2.76757,-13.6914 z" transform="scale(0.26458333)"/><path id="path926" d="m 74.765242,214.37704 c 0,0 -0.735835,-1.35519 -1.539925,-2.76848 -0.424662,-0.74639 -1.788849,-4.1514 -2.080347,-5.22171 -0.809812,-2.97344 -1.184659,-5.37149 -1.184659,-5.37149 l 14.456981,0.0411 c 0,0 -2.785321,6.55937 -3.357785,7.96712 -1.786762,4.39386 -2.388439,5.1281 -2.388439,5.1281 -1.305327,0.83975 -2.077856,1.08413 -3.905826,0.2253 z" style="fill:#ffac91;fill-opacity:1;stroke:none;stroke-width:.367492px;stroke-linecap:butt;stroke-linejoin:miter;stroke-opacity:1"/><path style="fill:#fb957e;fill-opacity:1;stroke:none;stroke-width:.362814px;stroke-linecap:butt;stroke-linejoin:miter;stroke-opacity:1" id="path1088" d="m 69.96026,201.01551 c 0,0 0.241777,1.52521 0.745753,3.64047 0.676432,-0.0458 1.413733,-0.0598 2.243715,0.056 2.949231,0.41139 2.872278,1.75558 5.154943,1.81377 1.719337,0.0438 3.07957,-0.4294 4.38838,-0.91729 0.951835,-2.25586 1.924309,-4.55203 1.924309,-4.55203 z"/><path id="path914" d="m 59.598406,166.50445 c 1.779454,-14.38759 0.04571,-14.53849 8.90068,-23.45494 6.173056,-6.2159 24.545074,-5.92499 32.121254,1.73702 7.96162,8.05182 8.74033,17.49282 9.44442,30.22994 0.89118,16.12176 0.19106,19.74979 -1.09402,24.31289 -0.85974,3.05279 -0.90464,3.22566 -5.95521,3.61675 -3.5089,0.27169 -4.29956,2.01079 -7.64003,1.99104 -4.19974,-0.0249 -4.42022,-1.5712 -8.46704,-1.73968 -3.320151,-0.1382 -5.405728,2.01442 -9.086073,1.92304 -2.34191,-0.0582 -2.262541,-1.40205 -5.288321,-1.81344 -2.599345,-0.35342 -4.383205,0.46891 -5.849215,-0.11612 -1.671976,-0.66725 -2.628076,-6.27107 -4.569729,-14.56076 -1.941651,-8.28968 -3.192234,-16.21076 -2.516716,-22.12573 z" style="fill:#c8293f;fill-opacity:1;stroke:none;stroke-width:.367492px;stroke-linecap:butt;stroke-linejoin:miter;stroke-opacity:1"/><path style="fill:#ac2029;fill-opacity:1;stroke:none;stroke-width:.404958px;stroke-linecap:butt;stroke-linejoin:miter;stroke-opacity:1" id="path963" d="m 84.057551,167.69047 c 10.033921,-0.60315 11.126731,-2.26366 13.212981,-3.83192 2.08627,-1.56825 6.060108,-8.80628 3.675798,-13.63164 -2.384298,-4.82537 -7.848318,-13.26975 -18.180275,-12.18405 -10.331958,1.0857 -10.928035,5.42854 -12.219529,17.25067 -1.291495,11.82215 13.511025,12.39694 13.511025,12.39694 z"/><path id="path955" d="m 83.555783,165.78827 c 10.033921,-0.60315 11.126731,-2.26366 13.212981,-3.83192 2.08627,-1.56825 6.060096,-8.80628 3.675786,-13.63164 -2.384286,-4.82537 -7.848306,-13.26975 -18.180263,-12.18405 -10.331958,1.0857 -10.928035,5.42854 -12.219529,17.25067 -1.291495,11.82215 13.511025,12.39694 13.511025,12.39694 z" style="fill:#e9475c;fill-opacity:1;stroke:none;stroke-width:.404958px;stroke-linecap:butt;stroke-linejoin:miter;stroke-opacity:1"/><path style="fill:#ac2029;fill-opacity:1;stroke:none;stroke-width:.367492px;stroke-linecap:butt;stroke-linejoin:miter;stroke-opacity:1" id="path959" d="m 87.606592,141.24749 c 0,0 -0.867608,8.63116 -0.142877,17.6127 0.362713,4.49508 0.88864,9.59926 1.417738,13.00981 2.697392,17.38727 2.119612,18.25416 7.109452,18.80955 4.119325,0.45849 8.140245,-0.24524 12.746455,-2.11847 3.06695,-1.24726 3.06035,-4.88196 2.97112,-11.42385 -0.0859,-6.3006 -0.37528,-9.97641 -1.08673,-13.25694 -1.78822,-8.24569 -0.36435,-9.39163 -5.59038,-16.21746 -4.86795,-6.35814 -6.578875,-6.78254 -9.449905,-8.15134 -1.78678,-0.85187 -8.23365,-2.47866 -8.23365,-2.47866 z"/><path style="fill:#ba3554;fill-opacity:1;stroke:none;stroke-width:1.38895px;stroke-linecap:butt;stroke-linejoin:miter;stroke-opacity:1" id="path989" d="m 330.13281,517.91992 0.97852,15.92969 c 0,0 -3.27821,32.62043 -0.53906,66.56641 0.6462,8.0084 1.43598,16.50512 2.29296,24.625 22.38459,-2.92715 26.38004,-8.03954 32.875,-12.92188 7.88512,-5.92724 22.90415,-33.2839 13.89258,-51.52148 -5.59336,-11.31997 -15.67714,-27.9037 -31.85547,-37.87891 -8.59629,-2.51204 -17.64453,-4.79883 -17.64453,-4.79883 z" transform="scale(0.26458333)"/><path id="path920" d="m 88.085663,140.20569 c 0,0 -0.867608,8.63116 -0.142877,17.6127 0.362713,4.49508 0.88864,9.59926 1.417738,13.00981 2.697392,17.38727 2.119612,18.25416 7.109452,18.80955 4.119324,0.45849 8.187014,0.15232 12.793224,-1.72091 3.06695,-1.24726 3.01358,-5.27952 2.92435,-11.82141 -0.0859,-6.3006 -0.37528,-9.97641 -1.08673,-13.25694 -1.78822,-8.24569 -0.36435,-9.39163 -5.59038,-16.21746 -4.86795,-6.35814 -6.578874,-6.78254 -9.449904,-8.15134 -1.78678,-0.85187 -8.23365,-2.47866 -8.23365,-2.47866 z" style="fill:#6b2b50;fill-opacity:1;stroke:none;stroke-width:.367492px;stroke-linecap:butt;stroke-linejoin:miter;stroke-opacity:1"/><path style="fill:#ac2029;fill-opacity:1;stroke:none;stroke-width:.367492px;stroke-linecap:butt;stroke-linejoin:miter;stroke-opacity:1" id="path961" d="m 67.645702,192.78507 c 2.88103,0 8.602804,-0.60418 10.303443,-2.94376 1.530512,-2.10555 3.226522,-8.16241 3.749007,-15.18021 0.295869,-3.97398 0.395539,-10.43373 0.415087,-14.62012 0.02022,-4.33037 -0.559215,-10.35849 -1.826337,-17.48371 -0.521833,-2.93434 -1.301709,-4.75127 -4.858646,-3.14292 -4.097665,1.85285 -5.710454,2.2832 -9.909965,7.39067 -4.210401,5.12072 -4.387964,8.30651 -4.979337,14.83661 -0.561985,6.20558 -1.2109,12.46724 -0.635188,20.75328 0.575712,8.28604 1.423096,9.6471 7.741912,10.39016 z"/><path style="fill:#ba3554;fill-opacity:1;stroke:none;stroke-width:1.38895px;stroke-linecap:butt;stroke-linejoin:miter;stroke-opacity:1" id="path984" d="m 293.3457,524.65234 c -2.19765,0.0378 -4.90083,0.74788 -8.26172,2.26758 -3.67274,1.66072 -6.79397,3.0174 -9.66601,4.38086 -6.37029,10.19922 -8.18926,25.63048 -10.68164,48.44531 -3.91542,35.84111 31.25579,44.31319 45.34765,46.26953 0.14306,-7.60664 0.2372,-15.04934 0.26563,-21.13671 0.0764,-16.36676 -2.11322,-39.15012 -6.90234,-66.08008 -1.47922,-8.31782 -3.50862,-14.25974 -10.10157,-14.14649 z" transform="scale(0.26458333)"/><path id="path922" d="m 66.666239,192.02204 c 2.88103,0 8.602804,-0.60418 10.303443,-2.94376 1.530512,-2.10555 3.226522,-8.16241 3.749007,-15.18021 0.295869,-3.97398 0.395539,-10.43373 0.415087,-14.62012 0.02022,-4.33037 -0.559215,-10.35849 -1.826337,-17.48371 -0.521833,-2.93434 -1.698584,-5.37966 -5.255521,-3.77131 -4.097665,1.85285 -5.644308,2.61393 -9.51309,8.01906 -3.85854,5.39082 -4.387964,8.30651 -4.979337,14.83661 -0.561985,6.20558 -1.2109,12.46724 -0.635188,20.75328 0.575712,8.28604 1.423096,9.6471 7.741912,10.39016 z" style="fill:#6b2b50;fill-opacity:1;stroke:none;stroke-width:.367492px;stroke-linecap:butt;stroke-linejoin:miter;stroke-opacity:1"/><ellipse style="mix-blend-mode:multiply;fill:#d3d3d3;fill-opacity:1;stroke:none;stroke-width:.214724;stroke-linecap:round;stroke-linejoin:round;stroke-miterlimit:4;stroke-dasharray:none;stroke-opacity:1" id="ellipse969" cx="83.209" cy="138.458" rx="6.825" ry="5.665"/><ellipse id="path916" cx="82.991" cy="126.693" rx="10.568" ry="15.871" style="fill:#fec0a9;fill-opacity:1;stroke:none;stroke-width:.230609;stroke-linejoin:round;stroke-opacity:1"/><ellipse id="path1007" cx="83.044" cy="137.201" rx="7.155" ry="5.665" style="fill:#fec0a9;fill-opacity:1;stroke:none;stroke-width:.219865;stroke-linecap:round;stroke-linejoin:round;stroke-miterlimit:4;stroke-dasharray:none;stroke-opacity:1"/><path id="path936" d="m 82.883019,130.27449 c -0.346993,0.41475 -0.745868,1.41758 -1.156774,1.9532 -0.411912,0.53693 -0.843643,1.46793 -0.588336,2.27463 0.348928,1.10255 2.382095,1.15463 2.913286,0.34746 0.531192,-0.80717 0.276312,-1.60772 -0.20406,-2.91465 -0.480371,-1.30693 -0.44813,-2.27738 -0.964116,-1.66064 z" style="fill:#ff7382;fill-opacity:1;stroke:none;stroke-width:.433871px;stroke-linecap:round;stroke-linejoin:miter;stroke-opacity:1"/><ellipse id="path938" cx="78.941" cy="129.079" rx="3.111" ry="3.637" style="fill:none;fill-opacity:1;stroke:#480402;stroke-width:.48189;stroke-linejoin:round;stroke-miterlimit:4;stroke-dasharray:none;stroke-opacity:1"/><ellipse style="fill:none;fill-opacity:1;stroke:#480402;stroke-width:.48189;stroke-linejoin:round;stroke-miterlimit:4;stroke-dasharray:none;stroke-opacity:1" id="ellipse940" cx="87.025" cy="128.94" rx="3.111" ry="3.637"/><ellipse id="path947" cx="78.98" cy="129.507" rx="1.174" ry="1.159" style="fill:#000;fill-opacity:1;stroke:#000;stroke-width:.440316;stroke-linecap:round;stroke-linejoin:round;stroke-miterlimit:4;stroke-dasharray:none;stroke-opacity:1"/><ellipse style="fill:#000;fill-opacity:1;stroke:#000;stroke-width:.440316;stroke-linecap:round;stroke-linejoin:round;stroke-miterlimit:4;stroke-dasharray:none;stroke-opacity:1" id="ellipse949" cx="87.221" cy="129.192" rx="1.174" ry="1.159"/><path id="path951" d="m 82.068876,129.99451 c 0,0 0.413396,-0.77149 1.025839,-0.80737 0.612441,-0.0358 0.995216,0.75355 0.995216,0.75355" style="fill:none;stroke:#480402;stroke-width:.346823px;stroke-linecap:butt;stroke-linejoin:miter;stroke-opacity:1"/><path id="path953" d="m 72.24998,129.07934 c -1.575958,0.11501 -1.18131,-2.07518 -0.920209,-5.19079 0.229088,-2.73361 1.41957,-5.90619 2.833379,-7.91599 1.87874,-2.67075 3.621304,-5.20731 8.47819,-5.41602 5.405636,-0.23232 6.780506,0.80025 9.087066,3.45324 1.82203,2.09568 2.47134,4.54436 2.84334,7.64364 0.22238,1.85267 0.80502,4.24176 -0.73753,4.88809 -1.54254,0.64635 -0.60767,-1.71978 -2.61764,-4.29353 -1.51335,-1.93782 -2.75318,-2.48091 -3.39763,-1.13737 -0.52924,1.10336 -1.83199,1.2838 -4.111091,1.28148 -2.488417,-0.003 -4.67591,-0.27277 -5.025232,-1.69234 -0.746684,-1.29783 -2.080852,0.86222 -3.42205,2.89278 -1.471392,2.22766 -1.597467,5.23265 -3.010593,5.48681 z" style="fill:#e3ecf7;fill-opacity:1;stroke:none;stroke-width:.343681px;stroke-linecap:butt;stroke-linejoin:miter;stroke-opacity:1"/><ellipse id="path993" cx="83.736" cy="111.125" rx="5.339" ry="5.198" style="fill:#e3ecf7;fill-opacity:1;stroke:none;stroke-width:.506968;stroke-linecap:round;stroke-linejoin:round;stroke-miterlimit:4;stroke-dasharray:none;stroke-opacity:1"/><path id="path1001" d="m 84.456023,139.14271 c -0.863195,0.75252 -1.96043,0.72389 -2.7544,-0.006 -0.793969,-0.73011 -1.197726,-1.62112 -0.894222,-2.09248 0.338573,-0.5258 0.805536,-0.83635 1.756231,-0.87774 1.23827,-0.0293 2.144348,0.10639 2.56131,0.71219 0.337944,0.66898 0.194275,1.51175 -0.668919,2.26425 z" style="fill:#2a0201;fill-opacity:1;stroke:none;stroke-width:.330725px;stroke-linecap:butt;stroke-linejoin:miter;stroke-opacity:1"/><ellipse id="path1003" cx="81.799" cy="133.936" rx=".186" ry=".584" style="fill:#ffe2e5;fill-opacity:1;stroke:none;stroke-width:.169381;stroke-linecap:round;stroke-linejoin:round;stroke-miterlimit:4;stroke-dasharray:none;stroke-opacity:1"/><path id="path1005" d="m 81.485801,141.00394 c 1.669768,-1.05077 3.214189,-0.001 3.214189,-0.001" style="fill:none;stroke:#d17456;stroke-width:.229177;stroke-linecap:round;stroke-linejoin:miter;stroke-miterlimit:4;stroke-dasharray:none;stroke-opacity:1"/><ellipse id="path1012" cx="93.341" cy="128.192" rx=".745" ry="2.037" style="fill:#fec0a9;fill-opacity:1;stroke:none;stroke-width:.229177;stroke-linecap:round;stroke-linejoin:round;stroke-miterlimit:4;stroke-dasharray:none;stroke-opacity:1"/><ellipse style="fill:#fec0a9;fill-opacity:1;stroke:none;stroke-width:.229177;stroke-linecap:round;stroke-linejoin:round;stroke-miterlimit:4;stroke-dasharray:none;stroke-opacity:1" id="ellipse1014" cx="72.81" cy="128.987" rx=".745" ry="2.037"/><path id="path1022" d="m 77.487905,127.33101 1.64792,-0.18156" style="fill:none;stroke:#000;stroke-width:.337364;stroke-linecap:round;stroke-linejoin:miter;stroke-miterlimit:4;stroke-dasharray:none;stroke-opacity:1"/><path id="path1024" d="m 86.941276,127.05063 1.58634,0.11654" style="fill:none;stroke:#000;stroke-width:.344818px;stroke-linecap:round;stroke-linejoin:miter;stroke-opacity:1"/><ellipse style="fill:#ffe2e5;fill-opacity:1;stroke:none;stroke-width:.160782;stroke-linecap:round;stroke-linejoin:round;stroke-miterlimit:4;stroke-dasharray:none;stroke-opacity:1" id="ellipse1028" cx="78.339" cy="129.288" rx=".227" ry=".432"/><ellipse id="ellipse1028-2" cx="86.527" cy="129.011" rx=".192" ry=".409" style="fill:#ffe2e5;fill-opacity:1;stroke:none;stroke-width:.1438;stroke-linecap:round;stroke-linejoin:round;stroke-miterlimit:4;stroke-dasharray:none;stroke-opacity:1"/><path id="path1045" d="m 72.742086,128.66684 0.389974,0.86415" style="fill:none;stroke:#d17456;stroke-width:.172884;stroke-linecap:round;stroke-linejoin:miter;stroke-miterlimit:4;stroke-dasharray:none;stroke-opacity:1"/><path id="path1047" d="m 72.763584,129.38654 0.364541,-0.71577" style="fill:none;stroke:#d17456;stroke-width:.180754;stroke-linecap:round;stroke-linejoin:miter;stroke-miterlimit:4;stroke-dasharray:none;stroke-opacity:1"/><path style="fill:none;stroke:#d17456;stroke-width:.172884;stroke-linecap:round;stroke-linejoin:miter;stroke-miterlimit:4;stroke-dasharray:none;stroke-opacity:1" id="path1049" d="m 93.089466,127.88154 0.38997,0.86415"/><path style="fill:none;stroke:#d17456;stroke-width:.180754;stroke-linecap:round;stroke-linejoin:miter;stroke-miterlimit:4;stroke-dasharray:none;stroke-opacity:1" id="path1051" d="m 93.110956,128.60124 0.36454,-0.71577"/><ellipse id="path1072" cx="93.29" cy="129.689" rx=".375" ry=".417" style="fill:#fff;fill-opacity:1;stroke:none;stroke-width:.136074;stroke-linecap:round;stroke-linejoin:round;stroke-miterlimit:4;stroke-dasharray:none;stroke-opacity:1"/><ellipse style="fill:#fff;fill-opacity:1;stroke:none;stroke-width:.136074;stroke-linecap:round;stroke-linejoin:round;stroke-miterlimit:4;stroke-dasharray:none;stroke-opacity:1" id="ellipse1082" cx="72.856" cy="130.33" rx=".375" ry=".417"/><rect style="fill:#d4d4d4;fill-opacity:1;stroke:none;stroke-width:.208717;stroke-linejoin:round;stroke-opacity:1" id="rect919" width="3.228" height="4.376" x="80.208" y="171.362"/><ellipse style="fill:#d4d4d4;fill-opacity:1;stroke:none;stroke-width:.165525;stroke-linejoin:round;stroke-opacity:1" id="ellipse921" cx="80.211" cy="173.55" rx="2.276" ry="2.189"/><rect id="rect925" width="2.766" height="4.376" x="-89.178" y="171.398" transform="scale(-1,1)" style="fill:#d4d4d4;fill-opacity:1;stroke:none;stroke-width:.193208;stroke-linejoin:round;stroke-opacity:1"/><ellipse id="ellipse927" cx="-88.976" cy="173.586" rx="2.276" ry="2.189" transform="scale(-1,1)" style="fill:#d4d4d4;fill-opacity:1;stroke:none;stroke-width:.165525;stroke-linejoin:round;stroke-opacity:1"/><ellipse style="fill:#bababa;fill-opacity:1;stroke:#bababa;stroke-width:.165;stroke-linejoin:round;stroke-opacity:1" id="ellipse923" cx="-86.412" cy="173.588" rx=".554" ry="2.11" transform="scale(-1,1)"/><ellipse id="path913" cx="83.436" cy="173.552" rx=".554" ry="2.11" style="fill:#979797;fill-opacity:1;stroke:#bababa;stroke-width:.165;stroke-linejoin:round;stroke-opacity:1"/><path id="path929" d="M 86.018657,173.37474 H 84.861044" style="fill:none;stroke:#474747;stroke-width:.465;stroke-linecap:round;stroke-linejoin:miter;stroke-miterlimit:4;stroke-dasharray:none;stroke-opacity:1"/><path style="fill:none;stroke:#474747;stroke-width:.465;stroke-linecap:round;stroke-linejoin:miter;stroke-miterlimit:4;stroke-dasharray:none;stroke-opacity:1" id="path933" d="M 86.528449,174.04069 H 85.370836"/><path style="fill:#4f1548;fill-opacity:1;stroke:none;stroke-width:.367492px;stroke-linecap:butt;stroke-linejoin:miter;stroke-opacity:1" id="path954" d="m 71.356887,140.83837 c -6.656165,1.34117 -10.852577,11.6101 -12.243603,16.84684 -0.788677,2.9691 -1.370501,4.78589 -0.945993,7.16738 0.30542,1.7134 1.216756,3.57892 4.56935,6.04624 1.988273,1.46326 3.734278,2.61152 5.792553,3.48112 2.058274,0.8696 5.353435,1.1501 5.353435,1.1501 1.629335,-1.88138 2.46804,-4.58086 1.30041,-6.66566 0,0 -1.972183,-0.53563 -4.605637,-2.08643 -4.186508,-2.46537 -3.245142,-4.02029 -2.907013,-5.68718 0.350481,-1.7278 0.940753,-3.5779 2.339225,-6.75382"/><path id="path943" d="m 78.316666,173.30208 c -8.084229,-0.92927 -10.424974,5.82408 -13.939914,17.13648 -3.744268,12.05046 -1.141336,21.57958 -12.935238,24.21991 -14.578154,3.26364 -14.240491,7.37187 -23.680208,5.15938 -10.599332,-2.48428 13.40753,-8.36198 12.894208,-0.85749 -0.423938,6.19778 -4.809294,6.23181 -10.823409,8.14568 -10.455408,3.32723 -19.513355,4.0075 -19.513355,4.0075" style="fill:none;stroke:#000;stroke-width:.465;stroke-linecap:butt;stroke-linejoin:miter;stroke-miterlimit:4;stroke-dasharray:none;stroke-opacity:1"/><path id="path939" d="m 66.155593,171.86158 c 0.151283,0.21361 6.987047,1.12661 7.587187,1.35465 2.152499,0.81788 2.730977,1.62022 4.541398,2.45125 0.435071,0.19972 0.685099,0.24593 0.342055,0.0608 -0.69794,-0.37662 -0.831021,-0.5104 -1.12059,-0.86116 -0.272655,-0.33026 -0.419214,-0.66619 0.759607,-0.066 0.871085,0.44348 0.574276,0.66361 2.984371,1.00449 0.28477,0.0403 -0.312189,-0.14174 -0.530987,-0.18835 -1.019266,-0.21711 -1.072136,-0.2486 -1.528321,-0.55479 -1.290278,-0.86604 -1.028596,-1.27202 0.594764,-0.55478 0.682761,0.30167 0.750105,0.46635 2.74425,1.06354 0.625096,0.1872 0.350135,-0.12886 -0.145794,-0.29376 -0.916041,-0.30459 -0.867919,-0.36405 -1.485694,-0.74413 -2.453003,-1.50914 -2.769211,-2.04703 1.354779,-0.14722 1.255417,0.59437 2.057805,0.55303 -1.224481,-1.15339 -3.282285,-1.7064 -2.145994,-1.0748 0.105459,-1.63947 0.49775,-0.12484 0.881576,-0.18038 1.046731,-0.37119 0.242284,-0.2799 0.511626,-0.47386 -0.917201,-0.11938 -1.334146,0.33101 -4.100324,-0.77223 -5.33788,-0.39073 -0.91,0.3422 -5.177588,-2.09597 -6.460566,-2.04844 -0.789414,0.0292 -3.225923,1.06235 -3.498863,1.19687" style="fill:#ffac91;fill-opacity:1;stroke:#ffac91;stroke-width:.365877px;stroke-linecap:butt;stroke-linejoin:miter;stroke-opacity:1"/><path id="path930" d="m 71.632819,140.2634 c -6.656165,1.34117 -11.315598,11.57703 -12.706624,16.81377 -0.788677,2.9691 -1.370501,4.78589 -0.945993,7.16738 0.30542,1.7134 1.43173,3.41355 4.784324,5.88087 1.988273,1.46326 3.691863,2.21431 5.586435,3.16576 1.894573,0.95148 5.912837,1.33317 5.912837,1.33317 0.833235,-0.81052 1.965928,-3.52252 0.798298,-5.60732 0,0 -2.256828,-0.70931 -4.890282,-2.26011 -4.186508,-2.46537 -3.406857,-4.45089 -2.88529,-6.36372 0.447347,-1.64064 1.252109,-3.60128 3.065168,-6.53199" style="fill:#6b2b50;fill-opacity:1;stroke:none;stroke-width:.367492px;stroke-linecap:butt;stroke-linejoin:miter;stroke-opacity:1"/><path style="fill:#4f1548;fill-opacity:1;stroke:none;stroke-width:1.38895px;stroke-linecap:butt;stroke-linejoin:miter;stroke-opacity:1" id="path952" d="m 372.34375,531.63867 2.15234,44.04102 c 5.9061,9.93082 7.05284,12.17476 11.72071,21.47656 5.26507,10.49163 6.79134,16.95336 2.92382,20.60937 -6.29423,5.95004 -15.40568,11.58359 -20.79101,15.3418 -3.90174,2.72289 -10.33007,6.12922 -10.33007,6.12922 -1.17184,5.98313 -2.65637,15.35846 5.9465,23.76735 0,0 5.77673,-1.42978 10.10619,-3.1414 6.25311,-2.47212 15.82191,-5.14338 28.42777,-13.20829 10.00442,-6.40058 16.24368,-11.46371 19.74609,-16.65039 -0.59581,-5.31333 -1.35943,-10.03908 -2.33789,-14.55079 -6.75862,-31.16481 -1.37698,-35.4965 -21.1289,-61.29492 -4.47392,-5.84349 -8.23186,-10.34312 -11.5293,-13.9082 -4.7473,-4.28287 -9.84359,-7.61705 -14.90625,-8.61133 z" transform="scale(0.26458333)"/><path id="path941" d="m 90.752082,173.83125 c 13.559888,2.11667 9.892568,7.34868 14.816668,18.32239 4.6302,10.31876 11.44323,18.25625 22.68802,21.23281 20.47631,5.42019 21.3651,-7.0776 41.60573,-2.71197" style="fill:none;stroke:#000;stroke-width:.465;stroke-linecap:butt;stroke-linejoin:miter;stroke-miterlimit:4;stroke-dasharray:none;stroke-opacity:1"/><path style="fill:#ffac91;fill-opacity:1;stroke:#ffac91;stroke-width:.319584px;stroke-linecap:butt;stroke-linejoin:miter;stroke-opacity:1" id="path911" d="m 101.35075,172.03723 c -0.12825,0.19222 -6.002755,0.74028 -6.511535,0.94551 -1.824842,0.73604 -2.160776,1.36348 -3.619856,2.50125 -0.341079,0.26597 -0.560796,0.22733 -0.282441,-0.0168 1.02087,-0.89548 0.824964,-1.04451 1.070455,-1.36018 0.23115,-0.29722 1.189462,-1.40417 -0.865595,0.40524 -0.122155,0.10756 -0.512693,0.56749 -2.408646,1.46162 -0.716174,0.33773 -0.412699,-0.0704 0.07759,-0.36869 0.918906,-0.55937 1.117183,-0.68646 1.41021,-0.96043 0.953213,-0.89125 0.872019,-1.14477 -0.504227,-0.49928 -0.578829,0.27148 -0.495194,0.37263 -2.775815,1.2506 -0.356076,0.13708 -0.505589,-0.0253 -0.119267,-0.20566 1.431541,-0.66801 1.427972,-0.67981 1.951708,-1.02185 2.079599,-1.35817 1.47335,-1.47048 -1.14855,-0.1325 -1.064313,0.5349 -1.744561,0.4977 1.038086,-1.03798 2.782646,-1.53569 1.819324,-0.96727 -0.08941,-1.47545 -0.421982,-0.11235 -0.747381,-0.16232 -0.887395,-0.33405 -0.205404,-0.2519 -0.433746,-0.42646 0.777581,-0.10744 1.131058,0.29789 3.195527,-0.88206 4.244698,-0.53872 0.771481,0.30796 4.670064,-1.69919 5.757744,-1.65641 0.66926,0.0263 2.734865,0.95605 2.966265,1.07711"/><path id="path928" d="m 98.304059,139.78477 c 3.560751,0.69931 7.558671,5.81999 9.343151,8.35527 1.71478,2.43625 3.09583,5.74648 3.67887,7.65056 2.37249,7.74811 2.84754,9.83619 -4.66901,14.47255 -2.59858,1.60288 -10.75526,4.47825 -10.75526,4.47825 -1.59417,-1.98027 -1.40937,-3.90019 -0.94731,-5.49492 0,0 6.33779,-3.89744 8.81242,-6.09336 1.41288,-1.25374 -0.025,-3.21074 -1.41805,-5.98665 -1.23504,-2.4611 -1.94852,-2.94418 -3.726149,-5.4725" style="fill:#6b2b50;fill-opacity:1;stroke:none;stroke-width:.367492px;stroke-linecap:butt;stroke-linejoin:miter;stroke-opacity:1"/><path style="fill:#ae222f;fill-opacity:1;stroke:none;stroke-width:1.38895px;stroke-linecap:butt;stroke-linejoin:miter;stroke-opacity:1" id="path973" d="m 245.68164,757.54102 c 1.96368,5.83038 3.96568,9.47011 6.35547,10.42382 5.54082,2.21114 12.28313,-0.8963 22.10742,0.43946 11.43602,1.55486 11.13697,6.63354 19.98828,6.85351 13.90997,0.34538 21.79124,-7.78991 34.33985,-7.26758 15.29506,0.63678 16.12892,6.48207 32.00195,6.57618 12.6254,0.0746 15.61302,-6.49853 28.875,-7.52539 16.85019,-1.3048 18.97682,-2.40883 21.47461,-10.48243 -0.0372,0.0472 -0.0615,0.11603 -0.0996,0.16211 -0.51893,0.62765 -1.12016,1.15202 -1.84961,1.59961 -0.72945,0.4476 -1.58681,0.81759 -2.61523,1.13086 -1.02843,0.31328 -2.22869,0.57022 -3.64454,0.79492 -2.83169,0.4494 -6.52735,0.76719 -11.43945,1.13672 -1.70635,0.12836 -3.24619,0.34324 -4.66211,0.6211 -1.41592,0.27785 -2.70657,0.62027 -3.91211,1 -2.41107,0.75945 -4.48136,1.67355 -6.53125,2.55468 -2.04989,0.88114 -4.08099,1.72785 -6.41015,2.34961 -1.16458,0.31089 -2.40333,0.56565 -3.75782,0.74024 -1.35448,0.17459 -2.82477,0.26909 -4.44922,0.25976 -2.04229,-0.0118 -3.84114,-0.11315 -5.45898,-0.2832 -1.61784,-0.17005 -3.05324,-0.40782 -4.36523,-0.69336 -2.624,-0.57108 -4.75486,-1.33121 -6.86719,-2.10742 -2.11234,-0.77622 -4.20623,-1.56811 -6.75586,-2.20703 -1.27482,-0.31946 -2.6645,-0.60134 -4.22656,-0.82227 -1.56207,-0.22093 -3.29769,-0.38134 -5.26563,-0.46094 -1.61456,-0.0653 -3.1527,0.004 -4.63867,0.17579 -1.48597,0.1718 -2.91994,0.44516 -4.32031,0.78711 -2.80075,0.68389 -5.47311,1.64076 -8.18946,2.60351 -2.71634,0.96275 -5.47526,1.93266 -8.45117,2.63867 -1.48795,0.35301 -3.0311,0.63974 -4.64844,0.82813 -1.61733,0.18839 -3.30988,0.27754 -5.0996,0.23437 -1.13886,-0.0275 -2.12915,-0.13 -3.01563,-0.29297 -0.88648,-0.16297 -1.66862,-0.38664 -2.38672,-0.65234 -1.43619,-0.5314 -2.62018,-1.23465 -3.88672,-1.98047 -1.26653,-0.74582 -2.61601,-1.53416 -4.38476,-2.23242 -1.76875,-0.69826 -3.95562,-1.3066 -6.89844,-1.69531 -2.52808,-0.33394 -4.85777,-0.39126 -7.01953,-0.32227 -2.16177,0.069 -4.15577,0.26482 -6.01172,0.43164 -1.85595,0.16682 -3.57491,0.30606 -5.18555,0.26563 -1.61063,-0.0404 -3.11324,-0.26167 -4.53906,-0.81446 -0.81307,-0.31523 -1.5833,-0.92105 -2.32227,-1.80273 -0.63441,-0.75694 -1.23647,-1.81316 -1.83398,-2.96484 z" transform="scale(0.26458333)"/></g></svg>