<?xml version="1.0" standalone="no"?>
<!DOCTYPE svg PUBLIC "-//W3C//DTD SVG 20010904//EN"
 "http://www.w3.org/TR/2001/REC-SVG-20010904/DTD/svg10.dtd">
<svg version="1.0" xmlns="http://www.w3.org/2000/svg"
 width="114.000000pt" height="114.000000pt" viewBox="0 0 114.000000 114.000000"
 preserveAspectRatio="xMidYMid meet">
<metadata>
Created by potrace 1.11, written by Peter Selinger 2001-2013
</metadata>
<g transform="translate(0.000000,114.000000) scale(0.100000,-0.100000)"
fill="#000000" stroke="none">
<path d="M240 892 c-35 -34 -54 -82 -32 -82 19 0 82 73 82 96 0 13 -2 24 -5
24 -2 0 -22 -17 -45 -38z"/>
<path d="M353 845 c32 -167 70 -312 95 -361 16 -33 32 -84 35 -114 8 -64 29
-96 83 -127 52 -30 64 -29 64 6 0 25 -4 29 -40 35 -89 14 -109 40 -69 90 17
21 29 26 65 26 l44 0 0 91 0 92 -30 -6 c-16 -4 -32 -2 -35 3 -10 17 -25 11
-25 -9 0 -11 15 -28 35 -41 59 -36 38 -105 -29 -98 -28 3 -35 11 -65 73 -18
39 -42 106 -52 150 -26 106 -49 176 -67 200 -13 19 -14 18 -9 -10z"/>
<path d="M300 848 c0 -7 -27 -40 -60 -73 -63 -62 -76 -99 -45 -125 13 -10 15
-9 15 9 0 12 26 49 61 87 42 45 59 71 57 86 -3 24 -28 38 -28 16z"/>
<path d="M440 816 c0 -19 47 -56 71 -56 11 0 19 -7 19 -15 0 -8 5 -15 10 -15
20 0 10 51 -15 75 -27 28 -85 35 -85 11z m54 -7 c-3 -6 0 -15 7 -20 11 -7 11
-9 -2 -9 -23 0 -30 11 -18 27 14 16 23 17 13 2z"/>
<path d="M332 754 c-1 -7 -22 -37 -46 -68 -62 -80 -74 -129 -51 -211 9 -36 21
-62 26 -59 5 3 9 38 9 79 0 65 4 82 35 142 25 46 35 77 32 98 -2 16 -5 25 -5
19z"/>
<path d="M336 577 c-25 -96 -31 -181 -15 -219 12 -28 107 -114 116 -104 5 5
-19 48 -53 96 -25 34 -26 37 -20 155 8 146 -3 172 -28 72z"/>
</g>
</svg>
